<?xml version="1.0" encoding="utf-8"?>
<!-- Generator: Adobe Illustrator 16.0.0, SVG Export Plug-In . SVG Version: 6.00 Build 0)  -->
<!DOCTYPE svg PUBLIC "-//W3C//DTD SVG 1.1//EN" "http://www.w3.org/Graphics/SVG/1.1/DTD/svg11.dtd">
<svg version="1.1" id="Layer_1" xmlns="http://www.w3.org/2000/svg" xmlns:xlink="http://www.w3.org/1999/xlink" x="0px" y="0px"
	 width="36px" height="26px" viewBox="0 0 36 26" enable-background="new 0 0 36 26" xml:space="preserve">
<title></title>
<desc>Created with Sketch.</desc>
<g id="Philios">
	<g id="Philios-Post-Image" transform="translate(-935.000000, -140.000000)">
		<g id="Pst-initial" transform="translate(182.000000, 114.000000)">
			<g id="Group-9" transform="translate(753.000000, 21.000000)">
				<g enable-background="new    ">
					<path fill="#FFFFFF" d="M36.012,29.07c0,0.523-0.321,0.985-0.783,1.187c-0.161,0.06-0.342,0.101-0.503,0.101
						c-0.342,0-0.663-0.121-0.904-0.382l-8.099-8.099v3.336c0,3.194-2.592,5.787-5.787,5.787H5.788C2.592,31,0,28.407,0,25.213
						V11.064C0,7.87,2.592,5.277,5.788,5.277h14.148c3.195,0,5.787,2.593,5.787,5.787v3.316l8.099-8.079
						c0.241-0.261,0.562-0.382,0.904-0.382c0.161,0,0.342,0.041,0.503,0.101c0.462,0.201,0.783,0.663,0.783,1.187V29.07z"/>
				</g>
			</g>
		</g>
	</g>
</g>
</svg>
