<?xml version="1.0" encoding="utf-8"?>
<!-- Generator: Adobe Illustrator 16.0.0, SVG Export Plug-In . SVG Version: 6.00 Build 0)  -->
<!DOCTYPE svg PUBLIC "-//W3C//DTD SVG 1.1//EN" "http://www.w3.org/Graphics/SVG/1.1/DTD/svg11.dtd">
<svg version="1.1" id="Layer_1" xmlns="http://www.w3.org/2000/svg" xmlns:xlink="http://www.w3.org/1999/xlink" x="0px" y="0px"
	 width="24px" height="21px" viewBox="0 0 24 21" enable-background="new 0 0 24 21" xml:space="preserve">
<title></title>
<desc>Created with Sketch.</desc>
<g id="Philios">
	<g id="Philios-Post-Image" transform="translate(-280.000000, -407.000000)">
		<g id="Group-14" transform="translate(182.000000, 241.000000)">
			<g id="Pst-initial-Copy" transform="translate(0.000000, -0.000000)">
				<g id="Group-12" transform="translate(98.000000, 166.000000)">
					<g enable-background="new    ">
						<path fill="#FFFFFF" d="M18.863,17.142c0,2.13-1.729,3.858-3.858,3.858H3.858C1.728,21,0,19.271,0,17.142V5.995
							c0-2.13,1.728-3.858,3.858-3.858h9.432c0.241,0,0.429,0.188,0.429,0.429v0.857c0,0.241-0.188,0.429-0.429,0.429H3.858
							c-1.179,0-2.144,0.965-2.144,2.144v11.146c0,1.179,0.965,2.144,2.144,2.144h11.146c1.179,0,2.144-0.965,2.144-2.144v-4.287
							c0-0.241,0.188-0.429,0.429-0.429h0.857c0.241,0,0.429,0.188,0.429,0.429V17.142z M24.008,8.139
							c0,0.469-0.389,0.857-0.857,0.857c-0.228,0-0.441-0.094-0.604-0.255l-2.357-2.357l-8.735,8.734
							c-0.081,0.081-0.201,0.135-0.308,0.135s-0.228-0.054-0.308-0.135l-1.527-1.526c-0.081-0.081-0.134-0.201-0.134-0.309
							s0.053-0.228,0.134-0.309l8.735-8.734l-2.358-2.358c-0.16-0.16-0.254-0.375-0.254-0.603c0-0.469,0.389-0.857,0.857-0.857
							h6.859c0.469,0,0.857,0.389,0.857,0.857V8.139z"/>
					</g>
				</g>
			</g>
		</g>
	</g>
</g>
</svg>
