<?xml version="1.0" encoding="utf-8"?>
<!-- Generator: Adobe Illustrator 16.0.0, SVG Export Plug-In . SVG Version: 6.00 Build 0)  -->
<!DOCTYPE svg PUBLIC "-//W3C//DTD SVG 1.1//EN" "http://www.w3.org/Graphics/SVG/1.1/DTD/svg11.dtd">
<svg version="1.1" id="Layer_1" xmlns="http://www.w3.org/2000/svg" xmlns:xlink="http://www.w3.org/1999/xlink" x="0px" y="0px"
	 width="23px" height="22px" viewBox="0 0 23 22" enable-background="new 0 0 23 22" xml:space="preserve">
<title></title>
<desc>Created with Sketch.</desc>
<g id="Philios">
	<g id="Philios-Post-Image" transform="translate(-699.000000, -407.000000)">
		<g id="Group-14" transform="translate(182.000000, 241.000000)">
			<g id="Pst-initial-Copy" transform="translate(0.000000, -0.000000)">
				<g id="Group-13" transform="translate(517.000000, 165.000000)">
					<g enable-background="new    ">
						<path fill="#FFFFFF" d="M22.293,21.429c0,0.71-0.576,1.286-1.286,1.286H1.286C0.576,22.715,0,22.139,0,21.429v-4.287
							c0-0.71,0.576-1.286,1.286-1.286h5.721c0.362,0.991,1.313,1.715,2.425,1.715h3.43c1.111,0,2.062-0.724,2.425-1.715h5.721
							c0.71,0,1.286,0.576,1.286,1.286V21.429z M17.148,8.996h-3.43v6.002c0,0.469-0.389,0.857-0.857,0.857h-3.43
							c-0.469,0-0.857-0.389-0.857-0.857V8.996h-3.43c-0.348,0-0.656-0.215-0.791-0.536C4.22,8.152,4.287,7.777,4.542,7.536
							l6.002-6.002c0.161-0.175,0.389-0.255,0.603-0.255s0.442,0.08,0.603,0.255l6.002,6.002c0.254,0.241,0.32,0.616,0.188,0.924
							C17.805,8.781,17.496,8.996,17.148,8.996z M16.291,19.285c-0.469,0-0.857,0.389-0.857,0.857S15.822,21,16.291,21
							s0.857-0.389,0.857-0.857S16.76,19.285,16.291,19.285z M19.721,19.285c-0.469,0-0.857,0.389-0.857,0.857S19.252,21,19.721,21
							s0.857-0.389,0.857-0.857S20.189,19.285,19.721,19.285z"/>
					</g>
				</g>
			</g>
		</g>
	</g>
</g>
</svg>
