<?xml version="1.0" encoding="utf-8"?>
<!-- Generator: Adobe Illustrator 16.0.0, SVG Export Plug-In . SVG Version: 6.00 Build 0)  -->
<!DOCTYPE svg PUBLIC "-//W3C//DTD SVG 1.1//EN" "http://www.w3.org/Graphics/SVG/1.1/DTD/svg11.dtd">
<svg version="1.1" id="Layer_1" xmlns="http://www.w3.org/2000/svg" xmlns:xlink="http://www.w3.org/1999/xlink" x="0px" y="0px"
	 width="31px" height="37px" viewBox="0 0 31 37" enable-background="new 0 0 31 37" xml:space="preserve">
<title></title>
<desc>Created with Sketch.</desc>
<g id="Philios">
	<g id="Philios-Post-Image" transform="translate(-853.000000, -135.000000)">
		<g id="Pst-initial" transform="translate(182.000000, 114.000000)">
			<g id="Group-10" transform="translate(666.000000, 21.000000)">
				<g enable-background="new    ">
					<path fill="#FFFFFF" d="M35.867,11.064v23.15c0,1.065-0.864,1.93-1.93,1.93H6.929C5.864,36.145,5,35.28,5,34.215V2.062
						c0-1.065,0.864-1.93,1.929-1.93h18.006c1.064,0,2.552,0.623,3.295,1.366L34.5,7.77C35.244,8.513,35.867,10,35.867,11.064z
						 M33.295,12.994h-8.359c-1.065,0-1.93-0.864-1.93-1.93V2.705H7.572v30.867h25.723V12.994z M10.145,16.853
						c0-2.13,1.728-3.858,3.858-3.858s3.858,1.729,3.858,3.858s-1.728,3.858-3.858,3.858S10.145,18.982,10.145,16.853z M30.723,31
						H10.145v-3.858l3.858-3.858l2.572,2.572l7.717-7.717l6.431,6.431V31z M25.578,10.422h7.557
						c-0.121-0.342-0.303-0.684-0.443-0.824l-6.289-6.29c-0.141-0.141-0.482-0.321-0.824-0.441V10.422z"/>
				</g>
			</g>
		</g>
	</g>
</g>
</svg>
